<mxfile host="Electron" modified="2023-11-13T23:47:36.484Z" agent="Mozilla/5.0 (Windows NT 10.0; Win64; x64) AppleWebKit/537.36 (KHTML, like Gecko) draw.io/22.0.3 Chrome/114.0.5735.289 Electron/25.8.4 Safari/537.36" etag="y52ZcD1XHLkUh24kMb38" version="22.0.3" type="device">
  <diagram name="Trang-1" id="8WOk82VxNDKTeJKdt3mN">
    <mxGraphModel dx="1869" dy="1102" grid="1" gridSize="10" guides="1" tooltips="1" connect="1" arrows="1" fold="1" page="1" pageScale="1" pageWidth="827" pageHeight="1169" math="0" shadow="0">
      <root>
        <mxCell id="0" />
        <mxCell id="1" parent="0" />
        <mxCell id="_pkrtM7WGQT2VM3EGbci-3" style="edgeStyle=orthogonalEdgeStyle;rounded=0;orthogonalLoop=1;jettySize=auto;html=1;entryX=0.5;entryY=0;entryDx=0;entryDy=0;" parent="1" source="_pkrtM7WGQT2VM3EGbci-1" target="h4dxqBW4cxkd71x_Y7fE-1" edge="1">
          <mxGeometry relative="1" as="geometry">
            <mxPoint x="390" y="160" as="targetPoint" />
          </mxGeometry>
        </mxCell>
        <mxCell id="_pkrtM7WGQT2VM3EGbci-1" value="start" style="ellipse;whiteSpace=wrap;html=1;" parent="1" vertex="1">
          <mxGeometry x="320" y="20" width="120" height="80" as="geometry" />
        </mxCell>
        <mxCell id="_pkrtM7WGQT2VM3EGbci-15" value="end" style="ellipse;whiteSpace=wrap;html=1;" parent="1" vertex="1">
          <mxGeometry x="1030" y="1210" width="120" height="80" as="geometry" />
        </mxCell>
        <mxCell id="UUbNbTwEhqEFoFcRrJ-n-1" style="edgeStyle=orthogonalEdgeStyle;rounded=0;orthogonalLoop=1;jettySize=auto;html=1;exitX=0.5;exitY=1;exitDx=0;exitDy=0;" edge="1" parent="1" source="h4dxqBW4cxkd71x_Y7fE-1">
          <mxGeometry relative="1" as="geometry">
            <mxPoint x="360.090909090909" y="230.72727272727252" as="targetPoint" />
          </mxGeometry>
        </mxCell>
        <mxCell id="UUbNbTwEhqEFoFcRrJ-n-3" style="edgeStyle=orthogonalEdgeStyle;rounded=0;orthogonalLoop=1;jettySize=auto;html=1;exitX=0.5;exitY=1;exitDx=0;exitDy=0;" edge="1" parent="1" source="h4dxqBW4cxkd71x_Y7fE-1" target="h4dxqBW4cxkd71x_Y7fE-3">
          <mxGeometry relative="1" as="geometry" />
        </mxCell>
        <mxCell id="h4dxqBW4cxkd71x_Y7fE-1" value="a,b,choice" style="shape=parallelogram;perimeter=parallelogramPerimeter;whiteSpace=wrap;html=1;fixedSize=1;" parent="1" vertex="1">
          <mxGeometry x="320" y="190" width="120" height="60" as="geometry" />
        </mxCell>
        <mxCell id="UUbNbTwEhqEFoFcRrJ-n-5" style="edgeStyle=orthogonalEdgeStyle;rounded=0;orthogonalLoop=1;jettySize=auto;html=1;exitX=1;exitY=0.5;exitDx=0;exitDy=0;entryX=0;entryY=0.5;entryDx=0;entryDy=0;" edge="1" parent="1" source="h4dxqBW4cxkd71x_Y7fE-3" target="h4dxqBW4cxkd71x_Y7fE-4">
          <mxGeometry relative="1" as="geometry" />
        </mxCell>
        <mxCell id="UUbNbTwEhqEFoFcRrJ-n-6" style="edgeStyle=orthogonalEdgeStyle;rounded=0;orthogonalLoop=1;jettySize=auto;html=1;exitX=1;exitY=0.5;exitDx=0;exitDy=0;entryX=0;entryY=0.5;entryDx=0;entryDy=0;" edge="1" parent="1" source="h4dxqBW4cxkd71x_Y7fE-3" target="h4dxqBW4cxkd71x_Y7fE-9">
          <mxGeometry relative="1" as="geometry" />
        </mxCell>
        <mxCell id="UUbNbTwEhqEFoFcRrJ-n-7" style="edgeStyle=orthogonalEdgeStyle;rounded=0;orthogonalLoop=1;jettySize=auto;html=1;exitX=1;exitY=0.5;exitDx=0;exitDy=0;entryX=0;entryY=0.5;entryDx=0;entryDy=0;" edge="1" parent="1" source="h4dxqBW4cxkd71x_Y7fE-3" target="h4dxqBW4cxkd71x_Y7fE-12">
          <mxGeometry relative="1" as="geometry" />
        </mxCell>
        <mxCell id="UUbNbTwEhqEFoFcRrJ-n-8" style="edgeStyle=orthogonalEdgeStyle;rounded=0;orthogonalLoop=1;jettySize=auto;html=1;exitX=1;exitY=0.5;exitDx=0;exitDy=0;entryX=0;entryY=0.5;entryDx=0;entryDy=0;" edge="1" parent="1" source="h4dxqBW4cxkd71x_Y7fE-3" target="h4dxqBW4cxkd71x_Y7fE-15">
          <mxGeometry relative="1" as="geometry" />
        </mxCell>
        <mxCell id="UUbNbTwEhqEFoFcRrJ-n-9" style="edgeStyle=orthogonalEdgeStyle;rounded=0;orthogonalLoop=1;jettySize=auto;html=1;exitX=1;exitY=0.5;exitDx=0;exitDy=0;entryX=0;entryY=0.5;entryDx=0;entryDy=0;" edge="1" parent="1" source="h4dxqBW4cxkd71x_Y7fE-3" target="h4dxqBW4cxkd71x_Y7fE-18">
          <mxGeometry relative="1" as="geometry" />
        </mxCell>
        <mxCell id="UUbNbTwEhqEFoFcRrJ-n-10" style="edgeStyle=orthogonalEdgeStyle;rounded=0;orthogonalLoop=1;jettySize=auto;html=1;exitX=1;exitY=0.5;exitDx=0;exitDy=0;entryX=0;entryY=0.5;entryDx=0;entryDy=0;" edge="1" parent="1" source="h4dxqBW4cxkd71x_Y7fE-3" target="h4dxqBW4cxkd71x_Y7fE-22">
          <mxGeometry relative="1" as="geometry" />
        </mxCell>
        <mxCell id="UUbNbTwEhqEFoFcRrJ-n-11" style="edgeStyle=orthogonalEdgeStyle;rounded=0;orthogonalLoop=1;jettySize=auto;html=1;exitX=1;exitY=0.5;exitDx=0;exitDy=0;entryX=0;entryY=0.5;entryDx=0;entryDy=0;" edge="1" parent="1" source="h4dxqBW4cxkd71x_Y7fE-3" target="h4dxqBW4cxkd71x_Y7fE-25">
          <mxGeometry relative="1" as="geometry" />
        </mxCell>
        <mxCell id="UUbNbTwEhqEFoFcRrJ-n-12" style="edgeStyle=orthogonalEdgeStyle;rounded=0;orthogonalLoop=1;jettySize=auto;html=1;exitX=1;exitY=0.5;exitDx=0;exitDy=0;entryX=0;entryY=0.5;entryDx=0;entryDy=0;" edge="1" parent="1" source="h4dxqBW4cxkd71x_Y7fE-3" target="h4dxqBW4cxkd71x_Y7fE-28">
          <mxGeometry relative="1" as="geometry" />
        </mxCell>
        <mxCell id="UUbNbTwEhqEFoFcRrJ-n-13" style="edgeStyle=orthogonalEdgeStyle;rounded=0;orthogonalLoop=1;jettySize=auto;html=1;exitX=1;exitY=0.5;exitDx=0;exitDy=0;entryX=0;entryY=0.5;entryDx=0;entryDy=0;" edge="1" parent="1" source="h4dxqBW4cxkd71x_Y7fE-3" target="h4dxqBW4cxkd71x_Y7fE-31">
          <mxGeometry relative="1" as="geometry" />
        </mxCell>
        <mxCell id="h4dxqBW4cxkd71x_Y7fE-3" value="choice=?" style="rhombus;whiteSpace=wrap;html=1;" parent="1" vertex="1">
          <mxGeometry x="322" y="335" width="116" height="100" as="geometry" />
        </mxCell>
        <mxCell id="h4dxqBW4cxkd71x_Y7fE-7" style="edgeStyle=orthogonalEdgeStyle;rounded=0;orthogonalLoop=1;jettySize=auto;html=1;" parent="1" source="h4dxqBW4cxkd71x_Y7fE-4" target="h4dxqBW4cxkd71x_Y7fE-6" edge="1">
          <mxGeometry relative="1" as="geometry" />
        </mxCell>
        <mxCell id="h4dxqBW4cxkd71x_Y7fE-4" value="choice=1" style="rhombus;whiteSpace=wrap;html=1;" parent="1" vertex="1">
          <mxGeometry x="560" y="345" width="80" height="80" as="geometry" />
        </mxCell>
        <mxCell id="UUbNbTwEhqEFoFcRrJ-n-14" style="edgeStyle=orthogonalEdgeStyle;rounded=0;orthogonalLoop=1;jettySize=auto;html=1;exitX=0.5;exitY=0;exitDx=0;exitDy=0;" edge="1" parent="1" source="h4dxqBW4cxkd71x_Y7fE-6">
          <mxGeometry relative="1" as="geometry">
            <mxPoint x="809.181818181818" y="354.36363636363626" as="targetPoint" />
          </mxGeometry>
        </mxCell>
        <mxCell id="h4dxqBW4cxkd71x_Y7fE-6" value="result=a+b" style="shape=parallelogram;perimeter=parallelogramPerimeter;whiteSpace=wrap;html=1;fixedSize=1;" parent="1" vertex="1">
          <mxGeometry x="750" y="355" width="120" height="60" as="geometry" />
        </mxCell>
        <mxCell id="h4dxqBW4cxkd71x_Y7fE-8" style="edgeStyle=orthogonalEdgeStyle;rounded=0;orthogonalLoop=1;jettySize=auto;html=1;" parent="1" source="h4dxqBW4cxkd71x_Y7fE-9" target="h4dxqBW4cxkd71x_Y7fE-10" edge="1">
          <mxGeometry relative="1" as="geometry" />
        </mxCell>
        <mxCell id="h4dxqBW4cxkd71x_Y7fE-9" value="choice=2" style="rhombus;whiteSpace=wrap;html=1;" parent="1" vertex="1">
          <mxGeometry x="560" y="470" width="80" height="80" as="geometry" />
        </mxCell>
        <mxCell id="UUbNbTwEhqEFoFcRrJ-n-20" style="edgeStyle=orthogonalEdgeStyle;rounded=0;orthogonalLoop=1;jettySize=auto;html=1;exitX=1;exitY=0.5;exitDx=0;exitDy=0;" edge="1" parent="1" source="h4dxqBW4cxkd71x_Y7fE-10">
          <mxGeometry relative="1" as="geometry">
            <mxPoint x="930" y="330" as="targetPoint" />
          </mxGeometry>
        </mxCell>
        <mxCell id="h4dxqBW4cxkd71x_Y7fE-10" value="result=a-b" style="shape=parallelogram;perimeter=parallelogramPerimeter;whiteSpace=wrap;html=1;fixedSize=1;" parent="1" vertex="1">
          <mxGeometry x="750" y="480" width="120" height="60" as="geometry" />
        </mxCell>
        <mxCell id="h4dxqBW4cxkd71x_Y7fE-11" style="edgeStyle=orthogonalEdgeStyle;rounded=0;orthogonalLoop=1;jettySize=auto;html=1;" parent="1" source="h4dxqBW4cxkd71x_Y7fE-12" target="h4dxqBW4cxkd71x_Y7fE-13" edge="1">
          <mxGeometry relative="1" as="geometry" />
        </mxCell>
        <mxCell id="h4dxqBW4cxkd71x_Y7fE-12" value="choice=3" style="rhombus;whiteSpace=wrap;html=1;" parent="1" vertex="1">
          <mxGeometry x="560" y="610" width="80" height="80" as="geometry" />
        </mxCell>
        <mxCell id="UUbNbTwEhqEFoFcRrJ-n-21" style="edgeStyle=orthogonalEdgeStyle;rounded=0;orthogonalLoop=1;jettySize=auto;html=1;exitX=1;exitY=0.5;exitDx=0;exitDy=0;" edge="1" parent="1" source="h4dxqBW4cxkd71x_Y7fE-13">
          <mxGeometry relative="1" as="geometry">
            <mxPoint x="930" y="340" as="targetPoint" />
          </mxGeometry>
        </mxCell>
        <mxCell id="h4dxqBW4cxkd71x_Y7fE-13" value="result=a*b" style="shape=parallelogram;perimeter=parallelogramPerimeter;whiteSpace=wrap;html=1;fixedSize=1;" parent="1" vertex="1">
          <mxGeometry x="750" y="620" width="120" height="60" as="geometry" />
        </mxCell>
        <mxCell id="h4dxqBW4cxkd71x_Y7fE-14" style="edgeStyle=orthogonalEdgeStyle;rounded=0;orthogonalLoop=1;jettySize=auto;html=1;" parent="1" source="h4dxqBW4cxkd71x_Y7fE-15" target="h4dxqBW4cxkd71x_Y7fE-16" edge="1">
          <mxGeometry relative="1" as="geometry" />
        </mxCell>
        <mxCell id="h4dxqBW4cxkd71x_Y7fE-15" value="choice=4" style="rhombus;whiteSpace=wrap;html=1;" parent="1" vertex="1">
          <mxGeometry x="560" y="750" width="80" height="80" as="geometry" />
        </mxCell>
        <mxCell id="UUbNbTwEhqEFoFcRrJ-n-22" style="edgeStyle=orthogonalEdgeStyle;rounded=0;orthogonalLoop=1;jettySize=auto;html=1;exitX=1;exitY=0.5;exitDx=0;exitDy=0;" edge="1" parent="1" source="h4dxqBW4cxkd71x_Y7fE-16">
          <mxGeometry relative="1" as="geometry">
            <mxPoint x="930" y="340" as="targetPoint" />
          </mxGeometry>
        </mxCell>
        <mxCell id="h4dxqBW4cxkd71x_Y7fE-16" value="result=a/b" style="shape=parallelogram;perimeter=parallelogramPerimeter;whiteSpace=wrap;html=1;fixedSize=1;" parent="1" vertex="1">
          <mxGeometry x="740" y="760" width="120" height="60" as="geometry" />
        </mxCell>
        <mxCell id="h4dxqBW4cxkd71x_Y7fE-17" style="edgeStyle=orthogonalEdgeStyle;rounded=0;orthogonalLoop=1;jettySize=auto;html=1;" parent="1" source="h4dxqBW4cxkd71x_Y7fE-18" target="h4dxqBW4cxkd71x_Y7fE-19" edge="1">
          <mxGeometry relative="1" as="geometry" />
        </mxCell>
        <mxCell id="h4dxqBW4cxkd71x_Y7fE-18" value="choice=5" style="rhombus;whiteSpace=wrap;html=1;" parent="1" vertex="1">
          <mxGeometry x="560" y="870" width="80" height="80" as="geometry" />
        </mxCell>
        <mxCell id="UUbNbTwEhqEFoFcRrJ-n-23" style="edgeStyle=orthogonalEdgeStyle;rounded=0;orthogonalLoop=1;jettySize=auto;html=1;exitX=1;exitY=0.5;exitDx=0;exitDy=0;" edge="1" parent="1" source="h4dxqBW4cxkd71x_Y7fE-19">
          <mxGeometry relative="1" as="geometry">
            <mxPoint x="930" y="340" as="targetPoint" />
          </mxGeometry>
        </mxCell>
        <mxCell id="h4dxqBW4cxkd71x_Y7fE-19" value="result=a%b" style="shape=parallelogram;perimeter=parallelogramPerimeter;whiteSpace=wrap;html=1;fixedSize=1;" parent="1" vertex="1">
          <mxGeometry x="750" y="880" width="120" height="60" as="geometry" />
        </mxCell>
        <mxCell id="h4dxqBW4cxkd71x_Y7fE-21" style="edgeStyle=orthogonalEdgeStyle;rounded=0;orthogonalLoop=1;jettySize=auto;html=1;" parent="1" source="h4dxqBW4cxkd71x_Y7fE-22" target="h4dxqBW4cxkd71x_Y7fE-23" edge="1">
          <mxGeometry relative="1" as="geometry" />
        </mxCell>
        <mxCell id="h4dxqBW4cxkd71x_Y7fE-22" value="choice=6" style="rhombus;whiteSpace=wrap;html=1;" parent="1" vertex="1">
          <mxGeometry x="560" y="1000" width="80" height="80" as="geometry" />
        </mxCell>
        <mxCell id="UUbNbTwEhqEFoFcRrJ-n-24" style="edgeStyle=orthogonalEdgeStyle;rounded=0;orthogonalLoop=1;jettySize=auto;html=1;exitX=1;exitY=0.5;exitDx=0;exitDy=0;" edge="1" parent="1" source="h4dxqBW4cxkd71x_Y7fE-23">
          <mxGeometry relative="1" as="geometry">
            <mxPoint x="930" y="340" as="targetPoint" />
          </mxGeometry>
        </mxCell>
        <mxCell id="h4dxqBW4cxkd71x_Y7fE-23" value="result=UCLN(a,b)" style="shape=parallelogram;perimeter=parallelogramPerimeter;whiteSpace=wrap;html=1;fixedSize=1;" parent="1" vertex="1">
          <mxGeometry x="740" y="1010" width="120" height="60" as="geometry" />
        </mxCell>
        <mxCell id="h4dxqBW4cxkd71x_Y7fE-24" style="edgeStyle=orthogonalEdgeStyle;rounded=0;orthogonalLoop=1;jettySize=auto;html=1;" parent="1" source="h4dxqBW4cxkd71x_Y7fE-25" target="h4dxqBW4cxkd71x_Y7fE-26" edge="1">
          <mxGeometry relative="1" as="geometry" />
        </mxCell>
        <mxCell id="h4dxqBW4cxkd71x_Y7fE-25" value="choice=7" style="rhombus;whiteSpace=wrap;html=1;" parent="1" vertex="1">
          <mxGeometry x="560" y="1110" width="80" height="80" as="geometry" />
        </mxCell>
        <mxCell id="UUbNbTwEhqEFoFcRrJ-n-25" style="edgeStyle=orthogonalEdgeStyle;rounded=0;orthogonalLoop=1;jettySize=auto;html=1;exitX=1;exitY=0.5;exitDx=0;exitDy=0;" edge="1" parent="1" source="h4dxqBW4cxkd71x_Y7fE-26">
          <mxGeometry relative="1" as="geometry">
            <mxPoint x="930" y="340" as="targetPoint" />
          </mxGeometry>
        </mxCell>
        <mxCell id="h4dxqBW4cxkd71x_Y7fE-26" value="result=BCNN(a,b)" style="shape=parallelogram;perimeter=parallelogramPerimeter;whiteSpace=wrap;html=1;fixedSize=1;" parent="1" vertex="1">
          <mxGeometry x="730" y="1120" width="120" height="60" as="geometry" />
        </mxCell>
        <mxCell id="h4dxqBW4cxkd71x_Y7fE-27" style="edgeStyle=orthogonalEdgeStyle;rounded=0;orthogonalLoop=1;jettySize=auto;html=1;entryX=0;entryY=0.5;entryDx=0;entryDy=0;" parent="1" source="h4dxqBW4cxkd71x_Y7fE-28" target="_pkrtM7WGQT2VM3EGbci-15" edge="1">
          <mxGeometry relative="1" as="geometry">
            <mxPoint x="740" y="1250" as="targetPoint" />
          </mxGeometry>
        </mxCell>
        <mxCell id="h4dxqBW4cxkd71x_Y7fE-28" value="choice=8" style="rhombus;whiteSpace=wrap;html=1;" parent="1" vertex="1">
          <mxGeometry x="560" y="1210" width="80" height="80" as="geometry" />
        </mxCell>
        <mxCell id="h4dxqBW4cxkd71x_Y7fE-30" style="edgeStyle=orthogonalEdgeStyle;rounded=0;orthogonalLoop=1;jettySize=auto;html=1;entryX=0;entryY=0.5;entryDx=0;entryDy=0;" parent="1" source="h4dxqBW4cxkd71x_Y7fE-31" target="h4dxqBW4cxkd71x_Y7fE-42" edge="1">
          <mxGeometry relative="1" as="geometry">
            <mxPoint x="740" y="1370" as="targetPoint" />
          </mxGeometry>
        </mxCell>
        <mxCell id="h4dxqBW4cxkd71x_Y7fE-31" value="choice: default" style="rhombus;whiteSpace=wrap;html=1;" parent="1" vertex="1">
          <mxGeometry x="540" y="1330" width="120" height="90" as="geometry" />
        </mxCell>
        <mxCell id="UUbNbTwEhqEFoFcRrJ-n-26" style="edgeStyle=orthogonalEdgeStyle;rounded=0;orthogonalLoop=1;jettySize=auto;html=1;exitX=1;exitY=0.5;exitDx=0;exitDy=0;" edge="1" parent="1" source="h4dxqBW4cxkd71x_Y7fE-42">
          <mxGeometry relative="1" as="geometry">
            <mxPoint x="930" y="337.0909534801136" as="targetPoint" />
          </mxGeometry>
        </mxCell>
        <mxCell id="h4dxqBW4cxkd71x_Y7fE-42" value="Vui long chon tu 1-8" style="ellipse;whiteSpace=wrap;html=1;" parent="1" vertex="1">
          <mxGeometry x="750" y="1335" width="120" height="80" as="geometry" />
        </mxCell>
        <mxCell id="UUbNbTwEhqEFoFcRrJ-n-19" value="" style="endArrow=classic;html=1;rounded=0;entryX=0.5;entryY=0;entryDx=0;entryDy=0;exitX=1;exitY=0.5;exitDx=0;exitDy=0;" edge="1" parent="1" source="h4dxqBW4cxkd71x_Y7fE-6" target="h4dxqBW4cxkd71x_Y7fE-3">
          <mxGeometry width="50" height="50" relative="1" as="geometry">
            <mxPoint x="900" y="380" as="sourcePoint" />
            <mxPoint x="950" y="330" as="targetPoint" />
            <Array as="points">
              <mxPoint x="940" y="335" />
            </Array>
          </mxGeometry>
        </mxCell>
      </root>
    </mxGraphModel>
  </diagram>
</mxfile>
